# xmcd
#
# Track frame offsets:
#	150
#	23013
#	39967
#	56112
#	70536
#	85790
#	106542
#	123845
#	139819
#	157206
#	173590
#	191201
#	207048
#	223863
#
# Disc length: 3195 seconds
#
# Revision: 0
# Processed by: cddbd v1.4PL0 Copyright (c) Steve Scherf et al.
# Submitted via: dBpowerAMP V4.0
#
DISCID=ba0c790e
DTITLE=enzo e rodrigo - esse tal de vanerao
DYEAR=1900
DGENRE=gauchas
TTITLE0=Esse Tal De Vanerão
TTITLE1=Tá Chegando O Vanerão
TTITLE2=Adeus Solidão
TTITLE3=Tão Bom Que É
TTITLE4=Doce Ilusão
TTITLE5=Sou Maxixeiro
TTITLE6=Você Vai Ver
TTITLE7=Mau Amigo Vanerão
TTITLE8=Fotografia
TTITLE9=Vem Pro Vanerão
TTITLE10=Na Leva Do Vanerão
TTITLE11=Minha Namorada
TTITLE12=A Dança Da Maxixo
TTITLE13=Tropicana
EXTD=
EXTT0=
EXTT1=
EXTT2=
EXTT3=
EXTT4=
EXTT5=
EXTT6=
EXTT7=
EXTT8=
EXTT9=
EXTT10=
EXTT11=
EXTT12=
EXTT13=
PLAYORDER=
